<?xml version="1.0" encoding="UTF-8"?>
<svg version="1.1" xmlns="http://www.w3.org/2000/svg" width="124" height="204">
<path d="M0 0 C3.436143 0.52501222 3.93016571 1.19199792 6.40625 3.9453125 C7.16970687 5.25561754 7.90228962 6.58421651 8.609375 7.92578125 C9.45279236 9.39547058 10.29792 10.86417943 11.14453125 12.33203125 C11.58168457 13.110625 12.01883789 13.88921875 12.46923828 14.69140625 C14.85900795 18.85482654 17.46291975 22.88113512 20.046875 26.92578125 C20.99932862 28.431893 21.95116042 29.93839818 22.90234375 31.4453125 C25.62634719 35.74981937 28.362184 40.04674809 31.09838867 44.34350586 C32.77464673 46.980016 34.44497548 49.62017145 36.11328125 52.26171875 C37.21608539 54.00394451 38.31895169 55.74613093 39.421875 57.48828125 C40.01178223 58.42365723 40.60168945 59.3590332 41.20947266 60.32275391 C44.34046499 65.25942019 47.53471652 70.13052303 50.87890625 74.92578125 C51.524646 75.85986816 52.17038574 76.79395508 52.83569336 77.75634766 C54.07205864 79.53530195 55.32351409 81.30389319 56.59204102 83.06005859 C60.25998658 88.35908167 61.84393997 91.6413157 60.859375 98.11328125 C59.71484375 100.44921875 59.71484375 100.44921875 58.046875 102.48828125 C54.53866812 107.09280278 51.51855658 111.84294334 48.546875 116.80078125 C41.84686541 127.88941823 34.726756 138.65911647 27.13671875 149.16015625 C25.69390019 151.18537648 25.69390019 151.18537648 24.859375 154.11328125 C24.199375 154.11328125 23.539375 154.11328125 22.859375 154.11328125 C22.73369141 154.89445312 22.73369141 154.89445312 22.60546875 155.69140625 C21.56764177 159.06026868 19.76791786 161.89000868 17.921875 164.86328125 C17.38143555 165.76626953 17.38143555 165.76626953 16.83007812 166.6875 C15.89858367 168.20053519 14.88475664 169.66222994 13.859375 171.11328125 C13.199375 171.11328125 12.539375 171.11328125 11.859375 171.11328125 C11.46878906 172.15935547 11.46878906 172.15935547 11.0703125 173.2265625 C9.7409532 176.39558355 8.18370589 179.31396603 6.484375 182.30078125 C5.89914063 183.34621094 5.31390625 184.39164063 4.7109375 185.46875 C2.87239982 188.09467829 1.82489912 189.04856664 -1.140625 190.11328125 C-9.47865329 178.37930104 -17.38808139 166.36588185 -25.1328125 154.234375 C-26.51962988 152.07860246 -27.94421381 149.94682621 -29.3984375 147.8359375 C-31.140625 145.11328125 -31.140625 145.11328125 -31.140625 143.11328125 C-31.800625 143.11328125 -32.460625 143.11328125 -33.140625 143.11328125 C-33.68976562 142.12070313 -34.23890625 141.128125 -34.8046875 140.10546875 C-37.15664899 135.99108757 -39.80281793 132.12079652 -42.515625 128.23828125 C-43.49914296 126.81931878 -44.48221986 125.4000505 -45.46484375 123.98046875 C-46.16359619 122.97258301 -46.16359619 122.97258301 -46.87646484 121.94433594 C-49.34669343 118.36636869 -51.74362619 114.7404858 -54.140625 111.11328125 C-55.57677022 108.94571635 -57.01433539 106.77909176 -58.453125 104.61328125 C-59.46826172 103.081875 -59.46826172 103.081875 -60.50390625 101.51953125 C-61.93022597 99.26135319 -61.93022597 99.26135319 -63.140625 98.11328125 C-64.13903103 92.23377906 -62.9569374 89.30205568 -59.640625 84.36328125 C-58.14973463 82.27341913 -56.64962697 80.19010354 -55.140625 78.11328125 C-53.83940335 76.18218538 -52.5476154 74.24469731 -51.265625 72.30078125 C-49.890625 70.23828125 -48.515625 68.17578125 -47.140625 66.11328125 C-46.75648437 65.53707031 -46.37234375 64.96085937 -45.9765625 64.3671875 C-44.3108724 61.86865234 -42.64518229 59.37011719 -40.97949219 56.87158203 C-40.55313477 56.2320459 -40.12677734 55.59250977 -39.6875 54.93359375 C-39.26146484 54.29454102 -38.83542969 53.65548828 -38.39648438 52.99707031 C-37.98205078 52.37541992 -37.56761719 51.75376953 -37.140625 51.11328125 C-35.99049729 49.38808969 -34.84036943 47.66289825 -33.69018555 45.93774414 C-32.89983382 44.75213442 -32.10963474 43.56642293 -31.31958008 42.38061523 C-28.61649998 38.32417466 -25.90893344 34.27076216 -23.19921875 30.21875 C-21.78385174 28.10026204 -20.36848717 25.98177245 -18.953125 23.86328125 C-18.28780762 22.86949463 -17.62249023 21.87570801 -16.93701172 20.85180664 C-16.28877441 19.88106201 -15.64053711 18.91031738 -14.97265625 17.91015625 C-14.33021973 16.95947266 -13.6877832 16.00878906 -13.02587891 15.02929688 C-11.73980138 13.04005704 -10.52514016 11.0032621 -9.37646484 8.93164062 C-4.56525213 0.41289187 -4.56525213 0.41289187 0 0 Z M-1.140625 14.11328125 C-1.594375 15.26828125 -2.048125 16.42328125 -2.515625 17.61328125 C-2.89847656 18.5878125 -2.89847656 18.5878125 -3.2890625 19.58203125 C-4.21144757 22.32379971 -4.89701949 25.09786779 -5.59109497 27.90457153 C-6.46911333 31.43356461 -7.39137046 34.95080608 -8.3125 38.46875 C-8.51567841 39.24495697 -8.71885681 40.02116394 -8.92819214 40.82089233 C-9.58156217 43.31439238 -10.23604016 45.80759986 -10.890625 48.30078125 C-11.22377716 49.57210403 -11.22377716 49.57210403 -11.56365967 50.86911011 C-14.39608552 61.66912406 -17.2615404 72.45262206 -20.51464844 83.13549805 C-21.63286967 86.88794309 -22.43625777 90.1844773 -22.140625 94.11328125 C-14.506859 98.41273793 -14.506859 98.41273793 -6.140625 100.11328125 C-6.140625 100.77328125 -6.140625 101.43328125 -6.140625 102.11328125 C-1.04866181 103.90342456 2.25830296 102.02799227 6.859375 99.86328125 C7.55804688 99.55003906 8.25671875 99.23679687 8.9765625 98.9140625 C12.75593866 97.19551598 16.34478903 95.33735518 19.859375 93.11328125 C18.36756067 82.13187019 15.76117068 71.58427559 12.70288086 60.95703125 C10.88747553 54.51815522 9.63113145 48.06477251 8.53515625 41.46875 C7.923232 38.43035155 7.005849 35.97282644 5.859375 33.11328125 C5.17519219 29.93525209 4.57326153 26.7530116 4.00390625 23.55273438 C3.36047493 20.11072273 2.64783404 17.14286919 0.859375 14.11328125 C0.199375 14.11328125 -0.460625 14.11328125 -1.140625 14.11328125 Z M-8.140625 16.11328125 C-12.93643058 22.77503166 -17.43339039 29.60768391 -21.87353516 36.50830078 C-26.17326172 43.18453947 -30.56678817 49.79462713 -34.98828125 56.390625 C-36.77634013 59.0636215 -38.55057781 61.74578702 -40.328125 64.42578125 C-42.73810403 68.04558911 -45.19141516 71.62589801 -47.703125 75.17578125 C-48.85083761 76.82030464 -49.99659941 78.46619083 -51.140625 80.11328125 C-51.82125 81.07878906 -52.501875 82.04429688 -53.203125 83.0390625 C-53.863125 84.01230469 -54.523125 84.98554687 -55.203125 85.98828125 C-55.81285156 86.87257813 -56.42257813 87.756875 -57.05078125 88.66796875 C-58.37353183 90.99580008 -58.37353183 90.99580008 -57.71484375 93.16796875 C-53.95613431 97.81272632 -48.05179264 101.1489965 -42.140625 102.11328125 C-36.29343498 101.04527409 -32.03304838 98.64427357 -28.140625 94.11328125 C-25.26548499 89.46772199 -24.05669583 84.2234907 -22.81347656 78.95507812 C-22.0664164 75.79986032 -21.24506839 72.6692873 -20.4140625 69.53515625 C-19.18817951 64.89151148 -17.98996199 60.24208475 -16.8125 55.5859375 C-15.25865048 49.49232284 -13.53061365 43.46720904 -11.71166992 37.44848633 C-10.28552435 32.70254031 -9.14421077 27.96394583 -8.140625 23.11328125 C-7.810625 22.12328125 -7.480625 21.13328125 -7.140625 20.11328125 C-7.52995356 17.97072332 -7.52995356 17.97072332 -8.140625 16.11328125 Z M6.859375 16.11328125 C5.22189283 19.38824559 6.68550825 22.68394726 7.484375 26.11328125 C7.66822754 26.92071777 7.85208008 27.7281543 8.04150391 28.56005859 C9.47449345 34.73450474 11.12010345 40.83463255 12.85961914 46.92871094 C14.6883637 53.3733204 16.31515034 59.86018428 17.921875 66.36328125 C18.43588935 68.40632766 18.95020398 70.44929854 19.46484375 72.4921875 C20.30699125 75.84560874 21.10879151 79.20056908 21.84765625 82.578125 C23.36610796 89.76980272 23.36610796 89.76980272 28.109375 94.98828125 C29.67883268 95.72684957 31.26566634 96.42861106 32.859375 97.11328125 C34.18822457 97.80233988 35.512009 98.50120958 36.83203125 99.20703125 C38.2777463 99.96915673 39.72437224 100.72955665 41.171875 101.48828125 C41.87795898 101.85937012 42.58404297 102.23045898 43.31152344 102.61279297 C45.12372403 103.52410823 46.98950218 104.32706109 48.859375 105.11328125 C52.2550054 103.98140445 52.72832937 103.330337 54.609375 100.42578125 C55.05796875 99.76191406 55.5065625 99.09804687 55.96875 98.4140625 C57.18627392 95.26879238 56.6254319 93.37787377 55.859375 90.11328125 C54.55947923 87.50717745 54.55947923 87.50717745 52.83203125 85.0234375 C52.20973633 84.08193848 51.58744141 83.14043945 50.94628906 82.17041016 C50.27823242 81.18218262 49.61017578 80.19395508 48.921875 79.17578125 C48.23963867 78.14888184 47.55740234 77.12198242 46.85449219 76.06396484 C44.86554327 73.07397109 42.86394203 70.09281807 40.859375 67.11328125 C39.91446689 65.69851582 38.97033009 64.28323458 38.02734375 62.8671875 C36.83143692 61.07203172 35.63528722 59.27705517 34.43676758 57.48364258 C20.63435114 36.8217388 20.63435114 36.8217388 15.203125 26.49609375 C13.11266261 22.78916916 10.67225106 19.31098074 7.859375 16.11328125 C7.529375 16.11328125 7.199375 16.11328125 6.859375 16.11328125 Z M11.234375 101.42578125 C10.2546875 101.82990234 9.275 102.23402344 8.265625 102.65039062 C6.86957031 103.2449707 6.86957031 103.2449707 5.4453125 103.8515625 C4.5898584 104.21290283 3.7344043 104.57424316 2.85302734 104.9465332 C0.52624577 106.01425057 0.52624577 106.01425057 -0.140625 109.11328125 C-0.20624712 111.00875282 -0.20949335 112.90662916 -0.17822266 114.80297852 C-0.16135406 115.97172012 -0.14448547 117.14046173 -0.12710571 118.34461975 C-0.1032077 119.61019211 -0.07930969 120.87576447 -0.0546875 122.1796875 C-0.03344818 123.48348862 -0.01220886 124.78728973 0.00967407 126.13059998 C0.0551849 128.895486 0.10438178 131.66027494 0.15625 134.42504883 C0.22202255 137.94271847 0.27952347 141.46046183 0.33428001 144.97831821 C0.38789386 148.35801798 0.44810463 151.73758981 0.5078125 155.1171875 C0.52766205 156.36859024 0.5475116 157.61999298 0.56796265 158.90931702 C0.6999583 165.69229332 1.03935629 172.37701487 1.859375 179.11328125 C5.84068941 177.78617645 6.85194683 175.31213341 8.859375 171.86328125 C9.20226562 171.28964844 9.54515625 170.71601563 9.8984375 170.125 C10.89282741 168.4588276 11.87627368 166.78613914 12.859375 165.11328125 C15.5257205 160.62402607 18.3248288 156.22862532 21.140625 151.83203125 C22.2467182 150.08239292 23.33312952 148.32007393 24.39453125 146.54296875 C26.24081431 143.48060058 28.24782476 140.54355493 30.26171875 137.58984375 C31.48120833 135.69948583 32.62407965 133.75948262 33.73046875 131.80078125 C36.32826888 127.20186418 39.33020932 122.8899562 42.32421875 118.54296875 C42.75089844 117.91390625 43.17757812 117.28484375 43.6171875 116.63671875 C44.0002002 116.07903809 44.38321289 115.52135742 44.77783203 114.94677734 C46.07166926 112.75338736 46.96193642 110.49269108 47.859375 108.11328125 C44.0931025 106.27046769 40.32064925 104.44067699 36.546875 102.61328125 C35.47501953 102.08863281 34.40316406 101.56398438 33.29882812 101.0234375 C32.27080078 100.52714844 31.24277344 100.03085938 30.18359375 99.51953125 C29.23572998 99.05869141 28.28786621 98.59785156 27.3112793 98.12304688 C21.55494329 95.75242 16.56905561 99.14403788 11.234375 101.42578125 Z M-23.140625 98.11328125 C-22.55102369 104.34723656 -21.17181399 109.97010296 -19.265625 115.92578125 C-19.00910156 116.77076172 -18.75257812 117.61574219 -18.48828125 118.48632812 C-18.23175781 119.29779297 -17.97523437 120.10925781 -17.7109375 120.9453125 C-17.48164551 121.67468018 -17.25235352 122.40404785 -17.01611328 123.15551758 C-16.02237803 125.37770469 -15.05828979 126.61773837 -13.140625 128.11328125 C-12.150625 128.11328125 -11.160625 128.11328125 -10.140625 128.11328125 C-10.140625 128.77328125 -10.140625 129.43328125 -10.140625 130.11328125 C-8.160625 131.10328125 -6.180625 132.09328125 -4.140625 133.11328125 C-2.86756944 132.06456872 -2.86756944 132.06456872 -3.02709961 129.70483398 C-3.03233643 128.66270752 -3.03757324 127.62058105 -3.04296875 126.546875 C-3.04780273 124.85981445 -3.04780273 124.85981445 -3.05273438 123.13867188 C-3.06111328 121.95466797 -3.06949219 120.77066406 -3.078125 119.55078125 C-3.08263672 118.36291016 -3.08714844 117.17503906 -3.09179688 115.95117188 C-3.10362825 113.00515899 -3.12011213 110.05924444 -3.140625 107.11328125 C-5.15655153 105.97951205 -7.17862247 104.85666484 -9.203125 103.73828125 C-10.32847656 103.11179687 -11.45382813 102.4853125 -12.61328125 101.83984375 C-16.15951351 100.10403571 -19.33183234 99.07397035 -23.140625 98.11328125 Z M-36.140625 103.11328125 C-36.800625 103.77328125 -37.460625 104.43328125 -38.140625 105.11328125 C-37.97791306 110.96187143 -35.0002991 115.6673767 -32.265625 120.67578125 C-31.81832031 121.51302734 -31.37101562 122.35027344 -30.91015625 123.21289062 C-29.67026037 125.52260818 -28.41040103 127.81988847 -27.140625 130.11328125 C-26.58117188 131.13292969 -26.02171875 132.15257812 -25.4453125 133.203125 C-25.01476563 133.83347656 -24.58421875 134.46382812 -24.140625 135.11328125 C-23.480625 135.11328125 -22.820625 135.11328125 -22.140625 135.11328125 C-19.34449351 126.88936509 -21.43750587 120.60141497 -23.578125 112.48828125 C-23.79533203 111.64265625 -24.01253906 110.79703125 -24.23632812 109.92578125 C-24.45095703 109.10851562 -24.66558594 108.29125 -24.88671875 107.44921875 C-25.07935303 106.7123584 -25.2719873 105.97549805 -25.47045898 105.21630859 C-26.16280242 103.04368697 -27.06944575 101.12284189 -28.140625 99.11328125 C-30.79553312 99.11328125 -33.8674872 101.67485225 -36.140625 103.11328125 Z M-54.140625 101.11328125 C-53.54265946 104.01388997 -52.69095192 106.09257783 -51.03125 108.5390625 C-50.60585938 109.17134766 -50.18046875 109.80363281 -49.7421875 110.45507812 C-49.29617187 111.10541016 -48.85015625 111.75574219 -48.390625 112.42578125 C-47.96007812 113.06451172 -47.52953125 113.70324219 -47.0859375 114.36132812 C-44.91826488 117.56416177 -42.70647017 120.729696 -40.4453125 123.8671875 C-37.44706392 128.09014439 -35.02233348 132.51942361 -32.515625 137.05078125 C-31.835 138.07171875 -31.835 138.07171875 -31.140625 139.11328125 C-30.480625 139.11328125 -29.820625 139.11328125 -29.140625 139.11328125 C-29.140625 140.10328125 -29.140625 141.09328125 -29.140625 142.11328125 C-27.655625 142.60828125 -27.655625 142.60828125 -26.140625 143.11328125 C-26.78041483 137.99496262 -29.0438736 133.69950703 -31.265625 129.11328125 C-31.87567383 127.85330322 -31.87567383 127.85330322 -32.49804688 126.56787109 C-33.32248844 124.87401254 -34.15025039 123.18176578 -34.98144531 121.49121094 C-36.00612102 119.38920138 -36.99590262 117.27509352 -37.9765625 115.15234375 C-41.10327059 108.73745439 -43.64091514 104.79731215 -50.22265625 101.75 C-52.12016563 101.00825866 -52.12016563 101.00825866 -54.140625 101.11328125 Z M-17.140625 130.11328125 C-19.65898285 135.14999694 -20.01145876 142.34859544 -18.3359375 147.66796875 C-17.51576461 149.26006906 -16.64665572 150.82761625 -15.73828125 152.37109375 C-13.41658308 156.35601335 -11.61123828 160.55540118 -9.72851562 164.76123047 C-7.85254677 168.85375882 -5.77562049 172.48110988 -3.140625 176.11328125 C-2.810625 176.11328125 -2.480625 176.11328125 -2.140625 176.11328125 C-1.9832087 163.74735636 -2.46354852 151.45912262 -3.140625 139.11328125 C-4.130625 138.78328125 -5.120625 138.45328125 -6.140625 138.11328125 C-6.470625 137.12328125 -6.800625 136.13328125 -7.140625 135.11328125 C-8.66201474 133.67006759 -8.66201474 133.67006759 -10.515625 132.42578125 C-11.12148438 131.98878906 -11.72734375 131.55179688 -12.3515625 131.1015625 C-14.23764172 129.87151525 -14.23764172 129.87151525 -17.140625 130.11328125 Z M-26.140625 143.11328125 C-25.810625 144.10328125 -25.480625 145.09328125 -25.140625 146.11328125 C-25.140625 145.12328125 -25.140625 144.13328125 -25.140625 143.11328125 C-25.470625 143.11328125 -25.800625 143.11328125 -26.140625 143.11328125 Z " fill="#867B72" transform="translate(63.140625,-1.11328125)"/>
<path d="M0 0 C1.96450131 6.67635032 -0.2502357 13.4675466 -2 20 C-2.66 19.67 -3.32 19.34 -4 19 C-4 18.01 -4 17.02 -4 16 C-9.19870125 23.72331017 -14.29624635 31.51001642 -19.375 39.3125 C-26.69013432 50.54371708 -34.02435365 61.75250753 -41.6875 72.75 C-44.53054625 76.85493309 -47.36649544 80.96266243 -50.125 85.125 C-50.70507812 85.99382812 -51.28515625 86.86265625 -51.8828125 87.7578125 C-53.36707479 90.07564213 -53.36707479 90.07564213 -52 93 C-47.60876879 96.32004642 -43.34782236 98.63471336 -38 100 C-33.278192 98.52018642 -29.89669555 95.9748263 -26 93 C-25.34 93 -24.68 93 -24 93 C-23.82259277 92.27441895 -23.64518555 91.54883789 -23.46240234 90.80126953 C-21.64794582 83.45266168 -19.68695205 76.15765139 -17.625 68.875 C-17.0089076 66.6888604 -16.39302373 64.50266203 -15.77734375 62.31640625 C-15.47683105 61.2505127 -15.17631836 60.18461914 -14.86669922 59.08642578 C-14.07193009 56.25615216 -13.28520994 53.42385978 -12.50390625 50.58984375 C-12.16721924 49.369021 -12.16721924 49.369021 -11.82373047 48.12353516 C-11.41400592 46.6352571 -11.00538967 45.14667326 -10.59814453 43.65771484 C-9.51441222 39.72787462 -8.32503479 35.85519171 -7 32 C-6.67 32 -6.34 32 -6 32 C-6.64270983 37.9129304 -8.19003784 43.34244531 -10 49 C-9.34 49 -8.68 49 -8 49 C-7.87882812 48.31292969 -7.75765625 47.62585937 -7.6328125 46.91796875 C-7.46523438 46.01691406 -7.29765625 45.11585937 -7.125 44.1875 C-6.96257813 43.29417969 -6.80015625 42.40085938 -6.6328125 41.48046875 C-6 39 -6 39 -4 36 C-4.64053323 42.42793932 -6.01481694 48.45444865 -7.6875 54.6875 C-8.08026123 56.17262085 -8.08026123 56.17262085 -8.48095703 57.68774414 C-11.1827122 67.83099232 -14.06695779 77.92156772 -17 88 C-17.66 88 -18.32 88 -19 88 C-19.66 91.96 -20.32 95.92 -21 100 C-21.33 98.68 -21.66 97.36 -22 96 C-22.350625 96.4125 -22.70125 96.825 -23.0625 97.25 C-24.8923875 98.90280161 -26.45658333 99.81099196 -28.625 100.9375 C-31.98148361 102.6137621 -31.98148361 102.6137621 -33.0625 104.875 C-32.97568767 107.82661914 -32.05774376 110.26231026 -31 113 C-32.485 112.505 -32.485 112.505 -34 112 C-34.33 112.66 -34.66 113.32 -35 114 C-35.24492188 113.40832031 -35.48984375 112.81664063 -35.7421875 112.20703125 C-39.02975937 105.2577845 -42.92171479 102.73510438 -50 100 C-47.2631772 104.90740639 -44.33871224 109.60012985 -41.1875 114.25 C-40.30522426 115.56459085 -39.42371937 116.87969936 -38.54296875 118.1953125 C-38.11290527 118.83758789 -37.6828418 119.47986328 -37.23974609 120.14160156 C-35.4730202 122.78995082 -33.72812049 125.45130415 -32 128.125 C-31.46375 128.95257813 -30.9275 129.78015625 -30.375 130.6328125 C-28.98469924 133.02634164 -27.95962151 135.4071765 -27 138 C-26.34 138 -25.68 138 -25 138 C-25 138.99 -25 139.98 -25 141 C-24.34 141 -23.68 141 -23 141 C-22.34 140.01 -21.68 139.02 -21 138 C-20.66226563 138.71027344 -20.32453125 139.42054688 -19.9765625 140.15234375 C-19.30753906 141.53099609 -19.30753906 141.53099609 -18.625 142.9375 C-18.18414062 143.85402344 -17.74328125 144.77054688 -17.2890625 145.71484375 C-16.20800838 148.12903802 -16.20800838 148.12903802 -14 149 C-13.67 148.01 -13.34 147.02 -13 146 C-10.03498404 151.81143128 -7.25876099 157.69656724 -4.55053711 163.63110352 C-2.87636605 167.26279589 -1.06934746 170.55108757 1 174 C1 169.38 1 164.76 1 160 C1.66 160 2.32 160 3 160 C3 166.6 3 173.2 3 180 C0.48916886 178.74458443 0.12874554 177.49936512 -1 175 C-1.66 175.33 -2.32 175.66 -3 176 C-3.33 176.99 -3.66 177.98 -4 179 C-9.75086084 170.42773562 -15.4375589 161.82197877 -20.9921875 153.12109375 C-22.37900488 150.96532121 -23.80358881 148.83354496 -25.2578125 146.72265625 C-27 144 -27 144 -27 142 C-27.66 142 -28.32 142 -29 142 C-29.54914062 141.00742188 -30.09828125 140.01484375 -30.6640625 138.9921875 C-33.01602399 134.87780632 -35.66219293 131.00751527 -38.375 127.125 C-39.35851796 125.70603753 -40.34159486 124.28676925 -41.32421875 122.8671875 C-42.02297119 121.85930176 -42.02297119 121.85930176 -42.73583984 120.83105469 C-45.20606843 117.25308744 -47.60300119 113.62720455 -50 110 C-51.43614522 107.8324351 -52.87371039 105.66581051 -54.3125 103.5 C-55.32763672 101.96859375 -55.32763672 101.96859375 -56.36328125 100.40625 C-57.78960097 98.14807194 -57.78960097 98.14807194 -59 97 C-59.99840603 91.12049781 -58.8163124 88.18877443 -55.5 83.25 C-54.00910963 81.16013788 -52.50900197 79.07682229 -51 77 C-49.69877835 75.06890413 -48.4069904 73.13141606 -47.125 71.1875 C-45.75 69.125 -44.375 67.0625 -43 65 C-42.61585937 64.42378906 -42.23171875 63.84757812 -41.8359375 63.25390625 C-40.1702474 60.75537109 -38.50455729 58.25683594 -36.83886719 55.75830078 C-36.41250977 55.11876465 -35.98615234 54.47922852 -35.546875 53.8203125 C-35.12083984 53.18125977 -34.69480469 52.54220703 -34.25585938 51.88378906 C-33.84142578 51.26213867 -33.42699219 50.64048828 -33 50 C-31.84987229 48.27480844 -30.69974443 46.549617 -29.54956055 44.82446289 C-28.75920882 43.63885317 -27.96900974 42.45314168 -27.17895508 41.26733398 C-24.47587498 37.21089341 -21.76830844 33.15748091 -19.05859375 29.10546875 C-17.64322674 26.98698079 -16.22786217 24.8684912 -14.8125 22.75 C-14.14718262 21.75621338 -13.48186523 20.76242676 -12.79638672 19.73852539 C-8.4402031 13.21507815 -4.18339553 6.63556268 0 0 Z M-22 142 C-21.67 142.99 -21.34 143.98 -21 145 C-21 144.01 -21 143.02 -21 142 C-21.33 142 -21.66 142 -22 142 Z " fill="#A69A92" transform="translate(59,0)"/>
<path d="M0 0 C0.33 0 0.66 0 1 0 C1.05542969 0.77988281 1.11085938 1.55976562 1.16796875 2.36328125 C1.73084497 5.20698841 1.73084497 5.20698841 4.36328125 6.29296875 C5.33652344 6.58816406 6.30976562 6.88335937 7.3125 7.1875 C10.71005749 8.25348933 13.86068631 9.30730592 17 11 C17 11.66 17 12.32 17 13 C23.14709334 12.65849481 27.19865732 11.03325731 32.6015625 8.140625 C35.81259975 6.61355191 38.47548461 6.28771554 42 6 C42.99 5.67 43.98 5.34 45 5 C45.73323796 2.98491642 45.73323796 2.98491642 46 1 C46.495 3.475 46.495 3.475 47 6 C42.25 9 42.25 9 40 9 C40 9.66 40 10.32 40 11 C34.72 13.31 29.44 15.62 24 18 C24.03552979 19.76408203 24.07105957 21.52816406 24.10766602 23.34570312 C24.22484183 29.24078618 24.33588902 35.1359685 24.4429636 41.03124237 C24.50795985 44.59789061 24.5752496 48.16446178 24.64819336 51.73095703 C25.26554923 82.06738013 25.26554923 82.06738013 24 95 C24.66 95 25.32 95 26 95 C25.34 96.98 24.68 98.96 24 101 C20.10819472 99.74906259 18.69365838 97.33924001 16.81640625 93.8203125 C15.81263416 91.58223693 15.29472293 89.43146414 15 87 C16.485 86.505 16.485 86.505 18 86 C19.485 88.475 19.485 88.475 21 91 C21.02888514 87.85418577 21.04675923 84.70840531 21.0625 81.5625 C21.07506836 80.21575195 21.07506836 80.21575195 21.08789062 78.84179688 C21.09111328 77.98779297 21.09433594 77.13378906 21.09765625 76.25390625 C21.10289307 75.46314697 21.10812988 74.6723877 21.11352539 73.85766602 C21.20495909 71.98407311 21.20495909 71.98407311 20 71 C19.96420028 69.53033717 19.98700807 68.05915386 20.03515625 66.58984375 C20.4947876 56.19689297 20.4947876 56.19689297 16.81640625 46.86328125 C13.34515229 44.13766675 10.17748191 42.39249397 6 41 C5.8312461 43.39570271 5.66493164 45.79153363 5.5 48.1875 C5.45230469 48.86103516 5.40460937 49.53457031 5.35546875 50.22851562 C5.10976179 53.82636752 4.94398016 57.39372306 5 61 C2 60 2 60 0.9375 58.00390625 C0.4734375 56.79541016 0.4734375 56.79541016 0 55.5625 C-1.36287699 52.02469848 -1.71086329 51.19275781 -5 49 C-6.13500977 47.12402344 -6.13500977 47.12402344 -7.19140625 44.859375 C-7.57876953 44.03566406 -7.96613281 43.21195313 -8.36523438 42.36328125 C-8.95788086 41.06970703 -8.95788086 41.06970703 -9.5625 39.75 C-9.96146484 38.90308594 -10.36042969 38.05617187 -10.77148438 37.18359375 C-14.82287252 28.48562187 -14.82287252 28.48562187 -16 24 C-15.67 23.34 -15.34 22.68 -15 22 C-10.40076703 26.01431309 -8.26332549 30.1226072 -5.875 35.6875 C-5.21367291 37.21570179 -4.54470497 38.74062561 -3.8671875 40.26171875 C-3.57956543 40.93162842 -3.29194336 41.60153809 -2.99560547 42.29174805 C-1.97159914 44.33638918 -1.97159914 44.33638918 1 46 C2.49555591 37.3384627 1.28894607 30.77689466 -1.4375 22.5 C-2.10596 20.38639315 -2.77146951 18.2718502 -3.43359375 16.15625 C-3.73322021 15.23650391 -4.03284668 14.31675781 -4.34155273 13.36914062 C-5 11 -5 11 -5 8 C-4.34 8 -3.68 8 -3 8 C-2.690625 7.05125 -2.38125 6.1025 -2.0625 5.125 C-1 2 -1 2 0 0 Z M0 9 C0.58960131 15.23395531 1.96881101 20.85682171 3.875 26.8125 C4.13152344 27.65748047 4.38804688 28.50246094 4.65234375 29.37304688 C4.90886719 30.18451172 5.16539063 30.99597656 5.4296875 31.83203125 C5.65897949 32.56139893 5.88827148 33.2907666 6.12451172 34.04223633 C7.11824697 36.26442344 8.08233521 37.50445712 10 39 C10.99 39 11.98 39 13 39 C13 39.66 13 40.32 13 41 C14.98 41.99 16.96 42.98 19 44 C20.27305556 42.95128747 20.27305556 42.95128747 20.11352539 40.59155273 C20.10828857 39.54942627 20.10305176 38.5072998 20.09765625 37.43359375 C20.09282227 35.7465332 20.09282227 35.7465332 20.08789062 34.02539062 C20.07951172 32.84138672 20.07113281 31.65738281 20.0625 30.4375 C20.05798828 29.24962891 20.05347656 28.06175781 20.04882812 26.83789062 C20.03699675 23.89187774 20.02051287 20.94596319 20 18 C17.98407347 16.8662308 15.96200253 15.74338359 13.9375 14.625 C12.81214844 13.99851562 11.68679687 13.37203125 10.52734375 12.7265625 C6.98111149 10.99075446 3.80879266 9.9606891 0 9 Z " fill="#8D8176" transform="translate(40,88)"/>
<path d="M0 0 C3.20703125 -0.42578125 3.20703125 -0.42578125 7 0 C9.00481652 2.31816902 10.26003187 4.16520109 11.6875 6.8125 C12.54019932 8.28210237 13.39443356 9.75081494 14.25 11.21875 C14.6934375 11.99734375 15.136875 12.7759375 15.59375 13.578125 C18.0053045 17.73135775 20.60484902 21.7643147 23.1875 25.8125 C24.20501137 27.42020327 25.22195555 29.02826568 26.23828125 30.63671875 C26.95105225 31.76279541 26.95105225 31.76279541 27.67822266 32.91162109 C28.82145717 34.71790628 29.96356715 36.52490312 31.10546875 38.33203125 C34.65934775 43.94135462 38.28836669 49.49373081 42 55 C41.505 55.99 41.505 55.99 41 57 C40.67 56.67 40.34 56.34 40 56 C39.34 56.66 38.68 57.32 38 58 C30.48031451 47.50629098 23.39613376 36.83564644 17.3515625 25.421875 C15.48079611 22.06963465 13.31251306 19.06067905 11 16 C10.67 16.33 10.34 16.66 10 17 C10.54138393 19.90133928 11.14522041 22.75230481 11.8125 25.625 C11.99103516 26.42035156 12.16957031 27.21570313 12.35351562 28.03515625 C13.16634144 31.60924233 14.03366213 35.1110491 15.09765625 38.62109375 C16.07358879 42.27555976 16.40942693 45.66497132 16.625 49.4375 C16.69976562 50.67371094 16.77453125 51.90992188 16.8515625 53.18359375 C16.92503906 54.57771484 16.92503906 54.57771484 17 56 C14.31906121 52.87223808 13.37133379 50.25398624 12.5 46.25 C11.69586837 42.76961779 10.88873105 39.47850328 9.5 36.1875 C7.46536311 31.122325 6.65396766 25.73182819 5.6484375 20.390625 C5.17100298 17.89416017 4.6566007 15.45296112 4 13 C3.34 13 2.68 13 2 13 C1.73445313 14.07378906 1.46890625 15.14757812 1.1953125 16.25390625 C0.83860579 17.6901201 0.48183134 19.12631712 0.125 20.5625 C-0.04902344 21.26697266 -0.22304688 21.97144531 -0.40234375 22.69726562 C-1.51294815 27.16024998 -2.71201216 31.58487052 -4 36 C-4.66 36 -5.32 36 -6 36 C-6.13277344 36.77085938 -6.26554687 37.54171875 -6.40234375 38.3359375 C-6.66724609 39.84027344 -6.66724609 39.84027344 -6.9375 41.375 C-7.11152344 42.37273438 -7.28554688 43.37046875 -7.46484375 44.3984375 C-8 47 -8 47 -9 49 C-9.66 49 -10.32 49 -11 49 C-10.69106068 47.3743193 -10.3777305 45.74947252 -10.0625 44.125 C-9.88847656 43.22007813 -9.71445312 42.31515625 -9.53515625 41.3828125 C-9 39 -9 39 -8 37 C-8.020625 35.948125 -8.04125 34.89625 -8.0625 33.8125 C-7.98269061 28.9441271 -7.23059825 24.84589737 -4.5 20.75 C-2.15055074 16.44267635 -1.71415894 11.8137059 -1 7 C-0.8865625 6.25105469 -0.773125 5.50210937 -0.65625 4.73046875 C-0.42528111 3.15538925 -0.2103946 1.5779595 0 0 Z " fill="#A5988D" transform="translate(60,0)"/>
<path d="M0 0 C0.66 0.33 1.32 0.66 2 1 C1.67 2.65 1.34 4.3 1 6 C-0.98 6.66 -2.96 7.32 -5 8 C-5 8.66 -5 9.32 -5 10 C-10.28 12.31 -15.56 14.62 -21 17 C-20.96447021 18.76408203 -20.92894043 20.52816406 -20.89233398 22.34570312 C-20.77515817 28.24078618 -20.66411098 34.1359685 -20.5570364 40.03124237 C-20.49204015 43.59789061 -20.4247504 47.16446178 -20.35180664 50.73095703 C-19.73445077 81.06738013 -19.73445077 81.06738013 -21 94 C-20.34 94 -19.68 94 -19 94 C-19.66 95.98 -20.32 97.96 -21 100 C-24.89180528 98.74906259 -26.30634162 96.33924001 -28.18359375 92.8203125 C-29.18736584 90.58223693 -29.70527707 88.43146414 -30 86 C-28.515 85.505 -28.515 85.505 -27 85 C-26.01 86.65 -25.02 88.3 -24 90 C-23.97111486 86.85418577 -23.95324077 83.70840531 -23.9375 80.5625 C-23.92912109 79.66466797 -23.92074219 78.76683594 -23.91210938 77.84179688 C-23.90888672 76.98779297 -23.90566406 76.13378906 -23.90234375 75.25390625 C-23.89710693 74.46314697 -23.89187012 73.6723877 -23.88647461 72.85766602 C-23.79504091 70.98407311 -23.79504091 70.98407311 -25 70 C-25.14492129 68.48710388 -25.2270618 66.96807374 -25.28125 65.44921875 C-25.31863281 64.52302734 -25.35601562 63.59683594 -25.39453125 62.64257812 C-25.44673828 61.17981445 -25.44673828 61.17981445 -25.5 59.6875 C-25.5690948 57.77459771 -25.64187466 55.86182415 -25.71875 53.94921875 C-25.76418945 52.67050903 -25.76418945 52.67050903 -25.81054688 51.3659668 C-25.98919055 49.13499273 -26.38711205 47.14789933 -27 45 C-26.01 45 -25.02 45 -24 45 C-24 35.43 -24 25.86 -24 16 C-28.455 15.01 -28.455 15.01 -33 14 C-34.32 13.34 -35.64 12.68 -37 12 C-37 11.01 -37 10.02 -37 9 C-32.16883117 9.93506494 -32.16883117 9.93506494 -30.12109375 10.72265625 C-24.6117341 12.57940177 -21.59832521 11.70910527 -16.375 9.1875 C-15.33085938 8.62417969 -14.28671875 8.06085938 -13.2109375 7.48046875 C-9.73852649 5.87944226 -6.78161533 5.41768435 -3 5 C-2.01 4.67 -1.02 4.34 0 4 C0 2.68 0 1.36 0 0 Z " fill="#7D6E65" transform="translate(85,89)"/>
<path d="M0 0 C2.00993705 3.01490557 2.72623341 5.2149927 3.625 8.6875 C3.88539062 9.68136719 4.14578125 10.67523438 4.4140625 11.69921875 C4.60742188 12.45847656 4.80078125 13.21773437 5 14 C5 11.03 5 8.06 5 5 C7.12423982 8.18635972 7.72661298 10.43738267 8.5859375 14.14453125 C8.87726563 15.38009766 9.16859375 16.61566406 9.46875 17.88867188 C9.77129797 19.19650718 10.07337991 20.50445039 10.375 21.8125 C11.25878544 25.61160421 12.1514677 29.40689345 13.08007812 33.1953125 C13.69737174 35.74836548 14.2738037 38.31161867 14.81054688 40.8828125 C16.54441359 48.83328619 16.54441359 48.83328619 22.109375 54.3359375 C23.63341361 55.06539188 25.18195064 55.74569993 26.75 56.375 C27.54277344 56.74109375 28.33554688 57.1071875 29.15234375 57.484375 C31.08168641 58.36768851 33.03851512 59.19056628 35 60 C34.01 60.33 33.02 60.66 32 61 C31.01 60.34 30.02 59.68 29 59 C26.9699314 59 24.93925932 59.00380234 22.91015625 59.06640625 C21 59 21 59 19 57.9375 C15.66892805 56.37606002 12.56552082 57.40574653 9 58 C10.96382007 56.49440461 12.78263366 55.10868317 15 54 C15 52.68 15 51.36 15 50 C14.67 50.99 14.34 51.98 14 53 C11 55 11 55 8.8125 54.625 C8.214375 54.41875 7.61625 54.2125 7 54 C8.32 53.34 9.64 52.68 11 52 C9.49472666 40.91951568 6.89319495 30.20981767 3.80175781 19.48120117 C0 6.2155889 0 6.2155889 0 0 Z " fill="#BFB4AB" transform="translate(71,40)"/>
<path d="M0 0 C1.9375 0.375 1.9375 0.375 4 1 C5.26237731 3.52475462 5.09856404 5.31200466 5.0625 8.125 C5.05347656 9.03507813 5.04445313 9.94515625 5.03515625 10.8828125 C5.02355469 11.58148438 5.01195313 12.28015625 5 13 C6.39025391 13.27263672 6.39025391 13.27263672 7.80859375 13.55078125 C9.00613281 13.80214844 10.20367187 14.05351562 11.4375 14.3125 C12.63246094 14.55613281 13.82742187 14.79976562 15.05859375 15.05078125 C16.51458984 15.52064453 16.51458984 15.52064453 18 16 C18.495 17.485 18.495 17.485 19 19 C17.84371094 19.19916016 17.84371094 19.19916016 16.6640625 19.40234375 C15.66117188 19.57894531 14.65828125 19.75554687 13.625 19.9375 C12.62726563 20.11152344 11.62953125 20.28554687 10.6015625 20.46484375 C8.03090344 20.87712062 8.03090344 20.87712062 6 22 C5.34444881 24.52733235 5.34444881 24.52733235 5 27 C3.35 27 1.7 27 0 27 C-0.66 25.02 -1.32 23.04 -2 21 C-6.29 20.34 -10.58 19.68 -15 19 C-14.505 17.515 -14.505 17.515 -14 16 C-12.84371094 15.81824219 -12.84371094 15.81824219 -11.6640625 15.6328125 C-10.66117187 15.46523437 -9.65828125 15.29765625 -8.625 15.125 C-7.12839844 14.88136719 -7.12839844 14.88136719 -5.6015625 14.6328125 C-2.8574885 14.2041198 -2.8574885 14.2041198 -1 12 C-0.53835888 9.89978435 -0.53835888 9.89978435 -0.375 7.5625 C-0.30023438 6.78003906 -0.22546875 5.99757812 -0.1484375 5.19140625 C-0.03144233 3.46418814 0 1.73117598 0 0 Z " fill="#7C6C61" transform="translate(104,177)"/>
<path d="M0 0 C3.20066984 1.60033492 3.70013124 4.75969899 5 7.96875 C5.82709949 10.16560255 5.82709949 10.16560255 8 11 C8.33 10.01 8.66 9.02 9 8 C11.96501596 13.81143128 14.74123901 19.69656724 17.44946289 25.63110352 C19.12363395 29.26279589 20.93065254 32.55108757 23 36 C23 31.38 23 26.76 23 22 C23.66 22 24.32 22 25 22 C25 28.6 25 35.2 25 42 C22.48916886 40.74458443 22.12874554 39.49936512 21 37 C20.01 37.495 20.01 37.495 19 38 C18.67 38.99 18.34 39.98 18 41 C16.35 38.69 14.7 36.38 13 34 C13.33 33.34 13.66 32.68 14 32 C14.33 32 14.66 32 15 32 C14.566875 31.30132812 14.13375 30.60265625 13.6875 29.8828125 C13.130625 28.97273438 12.57375 28.06265625 12 27.125 C11.443125 26.22007812 10.88625 25.31515625 10.3125 24.3828125 C9 22 9 22 9 20 C8.34 20 7.68 20 7 20 C6.46375 19.05125 5.9275 18.1025 5.375 17.125 C2.66086971 12.37039046 -0.17093764 7.68681331 -3 3 C-2.34 3 -1.68 3 -1 3 C-0.67 2.01 -0.34 1.02 0 0 Z M0 4 C0.33 4.99 0.66 5.98 1 7 C1 6.01 1 5.02 1 4 C0.67 4 0.34 4 0 4 Z " fill="#8F7D72" transform="translate(37,138)"/>
<path d="M0 0 C6.0207517 1.54819329 8.06984632 5.8651642 11.1328125 10.83984375 C13.07325226 14.12421771 14.69667624 17.41585965 16 21 C16.66 21 17.32 21 18 21 C18.350625 21.94875 18.70125 22.8975 19.0625 23.875 C20.92099369 28.29568886 23.70976224 31.94634965 26.57421875 35.765625 C28 38 28 38 28 41 C28.66 41 29.32 41 30 41 C31.50312477 43.07828493 32.85724824 45.12791551 34.1875 47.3125 C34.56841797 47.90740234 34.94933594 48.50230469 35.34179688 49.11523438 C36.31362948 50.69380094 37.16521849 52.34486531 38 54 C37.67 54.99 37.34 55.98 37 57 C32.59594201 52.06979348 28.89267141 47.02702025 25.375 41.4375 C24.44565165 39.97764863 23.5159701 38.51800931 22.5859375 37.05859375 C22.14991211 36.36878418 21.71388672 35.67897461 21.26464844 34.96826172 C20.09794179 33.15243373 18.88936819 31.37418785 17.6640625 29.59765625 C16 27 16 27 16 25 C15.34 25 14.68 25 14 25 C13.525625 24.113125 13.05125 23.22625 12.5625 22.3125 C10.06616563 17.88964671 7.0926187 13.79444463 4.08618164 9.70825195 C1.7927779 6.50192587 0.43197974 3.93906945 0 0 Z " fill="#7A6E66" transform="translate(16,117)"/>
<path d="M0 0 C1.96450131 6.67635032 -0.2502357 13.4675466 -2 20 C-2.66 19.67 -3.32 19.34 -4 19 C-4 18.01 -4 17.02 -4 16 C-4.72703125 17.09054688 -4.72703125 17.09054688 -5.46875 18.203125 C-8.15234375 22.22851562 -8.15234375 22.22851562 -10.8359375 26.25390625 C-11.41214844 27.11822266 -11.41214844 27.11822266 -12 28 C-14.66666667 32 -17.33333333 36 -20 40 C-20.33 39.34 -20.66 38.68 -21 38 C-19.5625 35.375 -19.5625 35.375 -18 33 C-18.66 33 -19.32 33 -20 33 C-19.38057877 29.85339273 -18.32715218 27.6993578 -16.5234375 25.05859375 C-16.02038086 24.31464355 -15.51732422 23.57069336 -14.99902344 22.80419922 C-14.4630957 22.02318848 -13.92716797 21.24217773 -13.375 20.4375 C-12.28296829 18.82481827 -11.19182039 17.2115377 -10.1015625 15.59765625 C-9.57079102 14.81406738 -9.04001953 14.03047852 -8.49316406 13.22314453 C-5.57152656 8.87317215 -2.77886981 4.4422778 0 0 Z " fill="#5E524A" transform="translate(59,0)"/>
<path d="M0 0 C1.98 0 3.96 0 6 0 C6.66 1.65 7.32 3.3 8 5 C7.01 5 6.02 5 5 5 C5.495 6.155 5.99 7.31 6.5 8.5 C8.15562957 12.85282892 8.24775605 16.37522033 8 21 C7.67 21 7.34 21 7 21 C6.491217 19.44033782 5.99336531 17.87710759 5.5 16.3125 C5.2215625 15.44238281 4.943125 14.57226562 4.65625 13.67578125 C4.00149195 11.00608323 3.88168505 8.73603316 4 6 C3.34 6 2.68 6 2 6 C1.49616316 9.47382244 1.00668065 12.94667626 0.5703125 16.4296875 C-0.31873295 23.30809178 -1.53911663 29.51221657 -4 36 C-4.66 36 -5.32 36 -6 36 C-6.13277344 36.77085938 -6.26554687 37.54171875 -6.40234375 38.3359375 C-6.66724609 39.84027344 -6.66724609 39.84027344 -6.9375 41.375 C-7.11152344 42.37273438 -7.28554688 43.37046875 -7.46484375 44.3984375 C-8 47 -8 47 -9 49 C-9.66 49 -10.32 49 -11 49 C-10.69106068 47.3743193 -10.3777305 45.74947252 -10.0625 44.125 C-9.88847656 43.22007813 -9.71445312 42.31515625 -9.53515625 41.3828125 C-9 39 -9 39 -8 37 C-8.020625 35.948125 -8.04125 34.89625 -8.0625 33.8125 C-7.98269061 28.9441271 -7.23059825 24.84589737 -4.5 20.75 C-2.15055074 16.44267635 -1.71415894 11.8137059 -1 7 C-0.8865625 6.25105469 -0.773125 5.50210937 -0.65625 4.73046875 C-0.42528111 3.15538925 -0.2103946 1.5779595 0 0 Z " fill="#412E1E" transform="translate(60,0)"/>
<path d="M0 0 C0.33 0.99 0.66 1.98 1 3 C0.01 4.485 0.01 4.485 -1 6 C-0.34 6 0.32 6 1 6 C-0.80388536 11.24223037 -3.86051271 15.48204996 -6.98632812 20.00390625 C-8.06635952 21.62134457 -9.04156732 23.30766985 -10 25 C-8.88820837 28.33537489 -7.52588702 29.63707344 -5 32 C-8.875 33 -8.875 33 -10 33 C-9.67 33.99 -9.34 34.98 -9 36 C-13 36 -13 36 -14.75 34.5 C-16.5944249 30.8111502 -17.00016017 27.9490195 -16 24 C-13.67704683 19.75025622 -10.84068377 15.91553709 -8 12 C-6.47847938 9.76367104 -4.99064279 7.50725908 -3.5 5.25 C-2.33333333 3.5 -1.16666667 1.75 0 0 Z " fill="#A89B92" transform="translate(16,65)"/>
<path d="M0 0 C2.72677737 0.61193388 4.52195842 1.39967295 6.28271484 3.61083984 C7.64767188 5.77118448 8.92786561 7.96407699 10.1875 10.1875 C11.14315165 11.81537935 12.10154045 13.44165458 13.0625 15.06640625 C13.54589844 15.8877002 14.02929688 16.70899414 14.52734375 17.55517578 C16.79745157 21.32388595 19.2274679 24.97837989 21.6875 28.625 C22.12151123 29.26977295 22.55552246 29.9145459 23.00268555 30.57885742 C23.99878112 32.05460726 24.99888793 33.52764862 26 35 C25.67 35.66 25.34 36.32 25 37 C24.505 36.505 24.505 36.505 24 36 C23.34 36.66 22.68 37.32 22 38 C1.58161747 9.50618001 1.58161747 9.50618001 0 0 Z " fill="#ACA197" transform="translate(76,20)"/>
<path d="M0 0 C5.22174202 2.38344322 6.8085057 5.66100226 9.125 10.625 C9.47191895 11.34051025 9.81883789 12.05602051 10.17626953 12.79321289 C12.5412348 17.7587403 14.34403687 22.75611677 16 28 C16.66 28.33 17.32 28.66 18 29 C18.33 26.36 18.66 23.72 19 21 C19.33 21 19.66 21 20 21 C19.98839844 21.96421875 19.97679688 22.9284375 19.96484375 23.921875 C19.95582031 25.18515625 19.94679688 26.4484375 19.9375 27.75 C19.92589844 29.00296875 19.91429688 30.2559375 19.90234375 31.546875 C19.97978973 34.28536501 20.17219185 36.41880293 21 39 C18 38 18 38 16.9375 36.00390625 C16.4734375 34.79541016 16.4734375 34.79541016 16 33.5625 C14.63712301 30.02469848 14.28913671 29.19275781 11 27 C9.86499023 25.12402344 9.86499023 25.12402344 8.80859375 22.859375 C8.42123047 22.03566406 8.03386719 21.21195313 7.63476562 20.36328125 C7.23966797 19.50089844 6.84457031 18.63851562 6.4375 17.75 C6.03853516 16.90308594 5.63957031 16.05617188 5.22851562 15.18359375 C0 3.95843333 0 3.95843333 0 0 Z " fill="#83776D" transform="translate(24,110)"/>
<path d="M0 0 C0.66 0.33 1.32 0.66 2 1 C1.67 2.65 1.34 4.3 1 6 C-0.98 6.66 -2.96 7.32 -5 8 C-5 8.66 -5 9.32 -5 10 C-7.20093512 11.04016797 -9.40838069 12.05677031 -11.625 13.0625 C-12.24246094 13.35705078 -12.85992187 13.65160156 -13.49609375 13.95507812 C-17.79819988 15.87970455 -20.45958603 16.13835594 -25 15 C-25.99 15 -26.98 15 -28 15 C-31.36081693 14.48295124 -34.02638833 13.65200648 -37 12 C-37 11.01 -37 10.02 -37 9 C-32.16883117 9.93506494 -32.16883117 9.93506494 -30.12109375 10.72265625 C-24.6117341 12.57940177 -21.59832521 11.70910527 -16.375 9.1875 C-15.33085938 8.62417969 -14.28671875 8.06085938 -13.2109375 7.48046875 C-9.73852649 5.87944226 -6.78161533 5.41768435 -3 5 C-2.01 4.67 -1.02 4.34 0 4 C0 2.68 0 1.36 0 0 Z " fill="#978A80" transform="translate(85,89)"/>
<path d="M0 0 C4.05281712 1.22527029 7.44360764 2.69880494 11 5 C8 6 8 6 6 6 C5.01 6.33 4.02 6.66 3 7 C2.01 6.34 1.02 5.68 0 5 C3.24914497 10.97842675 7.03981643 16.47131676 11 22 C10.67 22.66 10.34 23.32 10 24 C9.34 23.67 8.68 23.34 8 23 C7.67 23.66 7.34 24.32 7 25 C2.37081413 18.8876769 -1.83146525 12.99718091 -5 6 C-4.34 5.67 -3.68 5.34 -3 5 C-3.66 3.68 -4.32 2.36 -5 1 C-2.03 1.495 -2.03 1.495 1 2 C0.67 1.34 0.34 0.68 0 0 Z " fill="#91877D" transform="translate(9,95)"/>
<path d="M0 0 C0.33 0 0.66 0 1 0 C1.60272612 14.00376437 2.19058861 27.981149 2 42 C2.66 42 3.32 42 4 42 C3.34 43.98 2.68 45.96 2 48 C-1.89180528 46.74906259 -3.30634162 44.33924001 -5.18359375 40.8203125 C-6.18736584 38.58223693 -6.70527707 36.43146414 -7 34 C-5.515 33.505 -5.515 33.505 -4 33 C-3.01 34.65 -2.02 36.3 -1 38 C-0.67 25.46 -0.34 12.92 0 0 Z " fill="#513F34" transform="translate(62,141)"/>
<path d="M0 0 C-0.41153498 6.02549325 -2.23160406 9.61427252 -5.6875 14.5 C-6.13722168 15.15492432 -6.58694336 15.80984863 -7.05029297 16.48461914 C-10.11699218 20.89747267 -13.3437353 25.05508282 -17 29 C-18 26 -18 26 -16.6875 22.375 C-15 19 -15 19 -13 18 C-12.30264349 16.34593951 -11.64120325 14.67662775 -11 13 C-10.08013312 11.27065027 -9.12061792 9.56187596 -8.125 7.875 C-7.63257812 7.02679688 -7.14015625 6.17859375 -6.6328125 5.3046875 C-2.87457627 0 -2.87457627 0 0 0 Z " fill="#8A7F76" transform="translate(107,118)"/>
<path d="M0 0 C0.33 0 0.66 0 1 0 C0.35729017 5.9129304 -1.19003784 11.34244531 -3 17 C-2.34 17 -1.68 17 -1 17 C-0.87882812 16.31292969 -0.75765625 15.62585937 -0.6328125 14.91796875 C-0.38144531 13.56638672 -0.38144531 13.56638672 -0.125 12.1875 C0.03742187 11.29417969 0.19984375 10.40085937 0.3671875 9.48046875 C1 7 1 7 3 4 C2.3510228 10.66388785 0.85825527 16.91545354 -0.875 23.375 C-1.13152344 24.35210937 -1.38804688 25.32921875 -1.65234375 26.3359375 C-3.30920021 32.59702321 -5.09835053 38.80901787 -7 45 C-7.33 45 -7.66 45 -8 45 C-8.66268329 37.87615459 -6.25388064 31.69120815 -4 25 C-4.66 25 -5.32 25 -6 25 C-6.33 25.99 -6.66 26.98 -7 28 C-6.22634796 18.32934955 -3.10004816 9.1472273 0 0 Z " fill="#C2B4AC" transform="translate(52,32)"/>
<path d="M0 0 C0.66 0 1.32 0 2 0 C1.69128878 1.79232337 1.37790936 3.58384321 1.0625 5.375 C0.88847656 6.37273438 0.71445312 7.37046875 0.53515625 8.3984375 C0 11 0 11 -1 13 C-1.4362811 16.16395456 -1.81668927 19.32709179 -2.16210938 22.50195312 C-2.58815131 26.03844758 -2.9866065 27.97990975 -5 31 C-5.33 29.35 -5.66 27.7 -6 26 C-6.99 29.3 -7.98 32.6 -9 36 C-9.66 36 -10.32 36 -11 36 C-8.378868 24.8946776 -5.17352041 13.95719129 -2 3 C-1.34 3 -0.68 3 0 3 C0 2.01 0 1.02 0 0 Z " fill="#B7ADA4" transform="translate(46,57)"/>
<path d="M0 0 C0.33 0 0.66 0 1 0 C1.05542969 0.77988281 1.11085938 1.55976562 1.16796875 2.36328125 C1.73084497 5.20698841 1.73084497 5.20698841 4.36328125 6.29296875 C5.33652344 6.58816406 6.30976562 6.88335937 7.3125 7.1875 C10.71005749 8.25348933 13.86068631 9.30730592 17 11 C17 11.66 17 12.32 17 13 C14.03 12.01 11.06 11.02 8 10 C7.67 10.66 7.34 11.32 7 12 C5.02 11.34 3.04 10.68 1 10 C-1.20808081 15.19548425 -0.93402724 18.58264203 0 24 C-2.42604752 21.57395248 -2.75843519 19.85807224 -3.625 16.5625 C-3.88539062 15.59441406 -4.14578125 14.62632813 -4.4140625 13.62890625 C-5 11 -5 11 -5 8 C-4.34 8 -3.68 8 -3 8 C-2.690625 7.05125 -2.38125 6.1025 -2.0625 5.125 C-1 2 -1 2 0 0 Z " fill="#A49890" transform="translate(40,88)"/>
<path d="M0 0 C6.5724829 2.42608429 10.07157569 10.34681334 13.18359375 16.2421875 C14.41508755 18.9880062 15 20.9655932 15 24 C9.97804824 21.89139826 8.08656787 18.14336843 5.25 13.6875 C4.74339844 12.92759766 4.23679687 12.16769531 3.71484375 11.38476562 C3.23660156 10.64291016 2.75835937 9.90105469 2.265625 9.13671875 C1.83024414 8.46342529 1.39486328 7.79013184 0.94628906 7.09643555 C-0.18294843 4.59469088 -0.17151344 2.71493946 0 0 Z " fill="#897E76" transform="translate(99,55)"/>
<path d="M0 0 C2.429107 2.2178803 3.90820066 4.40933831 5.4375 7.3125 C6.94829438 10.12349319 8.49192638 12.81639047 10.3125 15.4375 C12 18 12 18 12 20 C9.625 20.125 9.625 20.125 7 20 C6.34 19.34 5.68 18.68 5 18 C5 17.01 5 16.02 5 15 C4.34 15 3.68 15 3 15 C3 14.01 3 13.02 3 12 C2.34 12 1.68 12 1 12 C-0.26237731 9.47524538 -0.09856404 7.68799534 -0.0625 4.875 C-0.05347656 3.96492187 -0.04445312 3.05484375 -0.03515625 2.1171875 C-0.02355469 1.41851562 -0.01195312 0.71984375 0 0 Z " fill="#BEB4AB" transform="translate(0,184)"/>
<path d="M0 0 C3.20066984 1.60033492 3.70013124 4.75969899 5 7.96875 C5.82709949 10.16560255 5.82709949 10.16560255 8 11 C8.33 10.01 8.66 9.02 9 8 C9.33 9.32 9.66 10.64 10 12 C9.34 12 8.68 12 8 12 C10.51957059 18.68305072 10.51957059 18.68305072 13.8125 25 C14.204375 25.66 14.59625 26.32 15 27 C14.67 27.66 14.34 28.32 14 29 C13.16094435 27.87926138 12.32892169 26.75325453 11.5 25.625 C11.0359375 24.99851563 10.571875 24.37203125 10.09375 23.7265625 C9 22 9 22 9 20 C8.34 20 7.68 20 7 20 C6.46375 19.05125 5.9275 18.1025 5.375 17.125 C2.66086971 12.37039046 -0.17093764 7.68681331 -3 3 C-2.34 3 -1.68 3 -1 3 C-0.67 2.01 -0.34 1.02 0 0 Z M0 4 C0.33 4.99 0.66 5.98 1 7 C1 6.01 1 5.02 1 4 C0.67 4 0.34 4 0 4 Z " fill="#D3C6BB" transform="translate(37,138)"/>
<path d="M0 0 C1.9375 0.375 1.9375 0.375 4 1 C5.26237731 3.52475462 5.09856404 5.31200466 5.0625 8.125 C5.05347656 9.03507813 5.04445313 9.94515625 5.03515625 10.8828125 C5.02355469 11.58148438 5.01195313 12.28015625 5 13 C6.39025391 13.27263672 6.39025391 13.27263672 7.80859375 13.55078125 C9.00613281 13.80214844 10.20367187 14.05351562 11.4375 14.3125 C12.63246094 14.55613281 13.82742187 14.79976562 15.05859375 15.05078125 C16.51458984 15.52064453 16.51458984 15.52064453 18 16 C18.33 16.99 18.66 17.98 19 19 C17.02 19.33 15.04 19.66 13 20 C12.67 19.34 12.34 18.68 12 18 C10.02111039 17.27306096 8.02045442 16.60183749 6 16 C6 15.34 6 14.68 6 14 C5.01 14 4.02 14 3 14 C2.67 12.02 2.34 10.04 2 8 C1.71125 8.94875 1.4225 9.8975 1.125 10.875 C0 14 0 14 -2 16 C-4.625 16.125 -4.625 16.125 -7 16 C-6.38125 15.71125 -5.7625 15.4225 -5.125 15.125 C-2.86674235 14.06279958 -2.86674235 14.06279958 -1 12 C-0.53835888 9.89978435 -0.53835888 9.89978435 -0.375 7.5625 C-0.30023438 6.78003906 -0.22546875 5.99757812 -0.1484375 5.19140625 C-0.03144233 3.46418814 0 1.73117598 0 0 Z " fill="#E3D5CE" transform="translate(104,177)"/>
<path d="M0 0 C-0.1546875 1.5778125 -0.1546875 1.5778125 -0.3125 3.1875 C-0.36068704 7.15521993 -0.36068704 7.15521993 2.5 9.9375 C3.325 10.618125 4.15 11.29875 5 12 C1.125 13 1.125 13 0 13 C0.33 13.99 0.66 14.98 1 16 C-3 16 -3 16 -4.75 14.5 C-6.51144788 10.97710423 -6.73671899 7.86579424 -6 4 C-3 0 -3 0 0 0 Z " fill="#78695B" transform="translate(6,85)"/>
<path d="M0 0 C0.99 0 1.98 0 3 0 C9 6.72727273 9 6.72727273 9 11 C9.66 11 10.32 11 11 11 C12.50312477 13.07828493 13.85724824 15.12791551 15.1875 17.3125 C15.56841797 17.90740234 15.94933594 18.50230469 16.34179688 19.11523438 C17.31362948 20.69380094 18.16521849 22.34486531 19 24 C18.67 24.99 18.34 25.98 18 27 C13.54598776 22.01150629 9.77402845 16.88808175 6.1875 11.25 C5.69830078 10.49589844 5.20910156 9.74179688 4.70507812 8.96484375 C2.77786095 5.96339625 1.13356511 3.40069534 0 0 Z " fill="#7E7266" transform="translate(35,147)"/>
<path d="M0 0 C2.22216689 3.33325033 3.11004074 6.48458973 4.0625 10.3125 C4.2387793 11.01439453 4.41505859 11.71628906 4.59667969 12.43945312 C6.21930297 19.26735376 6.78070308 25.98249867 7 33 C4.25199568 29.81568301 3.33099552 27.08455097 2.4375 23 C1.54021367 18.81582413 1.54021367 18.81582413 -0.11328125 14.90625 C-1.22993785 12.50568427 -1.02490669 11.09495006 -0.625 8.5 C-0.19179007 5.55820235 0 3.01155211 0 0 Z " fill="#A79D95" transform="translate(70,23)"/>
<path d="M0 0 C0.66 0.66 1.32 1.32 2 2 C2.66 1.34 3.32 0.68 4 0 C4.42589023 5.53657294 2.905247 9.89665983 1 15 C0.34 15 -0.32 15 -1 15 C-1.13277344 15.77085938 -1.26554687 16.54171875 -1.40234375 17.3359375 C-1.66724609 18.84027344 -1.66724609 18.84027344 -1.9375 20.375 C-2.11152344 21.37273438 -2.28554688 22.37046875 -2.46484375 23.3984375 C-3 26 -3 26 -4 28 C-4.66 28 -5.32 28 -6 28 C-5.69106068 26.3743193 -5.3777305 24.74947252 -5.0625 23.125 C-4.88847656 22.22007813 -4.71445312 21.31515625 -4.53515625 20.3828125 C-4 18 -4 18 -3 16 C-3.020625 14.948125 -3.04125 13.89625 -3.0625 12.8125 C-2.98654132 8.17902029 -2.07805852 4.15611704 0 0 Z " fill="#B3A99F" transform="translate(55,21)"/>
<path d="M0 0 C0.66 0 1.32 0 2 0 C2.26554687 0.98742187 2.53109375 1.97484375 2.8046875 2.9921875 C3.16110753 4.28655498 3.51789766 5.58082059 3.875 6.875 C4.13603516 7.85146484 4.13603516 7.85146484 4.40234375 8.84765625 C5.49529579 12.8068437 5.49529579 12.8068437 8 16 C8.4140625 18.6015625 8.4140625 18.6015625 8.625 21.625 C8.69976562 22.62789062 8.77453125 23.63078125 8.8515625 24.6640625 C8.92503906 25.82035156 8.92503906 25.82035156 9 27 C8.01 26.67 7.02 26.34 6 26 C5.69255859 24.44539063 5.69255859 24.44539063 5.37890625 22.859375 C5.10682231 21.48957311 4.83468404 20.11978201 4.5625 18.75 C4.42779297 18.06808594 4.29308594 17.38617187 4.15429688 16.68359375 C3.50779289 13.43530542 2.84997305 10.20184022 2 7 C1.34 7 0.68 7 0 7 C-0.66 9.64 -1.32 12.28 -2 15 C-3.06396981 10.74412077 -2.77540332 9.32535515 -1.5625 5.25 C-1.27503906 4.26515625 -0.98757812 3.2803125 -0.69140625 2.265625 C-0.46324219 1.51796875 -0.23507813 0.7703125 0 0 Z " fill="#6E645B" transform="translate(62,6)"/>
<path d="M0 0 C0 1.66666667 0 3.33333333 0 5 C0.66 4.67 1.32 4.34 2 4 C0.66749209 7.5875213 -0.830717 10.8364623 -3 14 C-3.66 14 -4.32 14 -5 14 C-5.103125 14.598125 -5.20625 15.19625 -5.3125 15.8125 C-6.08876455 18.28243264 -7.07088921 19.32251235 -9 21 C-9.33 20.34 -9.66 19.68 -10 19 C-10.99 19 -11.98 19 -13 19 C-12.61328125 18.50371094 -12.2265625 18.00742188 -11.828125 17.49609375 C-9.28480376 14.17844451 -6.85045368 10.90562898 -4.8125 7.25 C-3.35208947 4.63133285 -1.86650422 2.33313028 0 0 Z " fill="#A2958D" transform="translate(91,139)"/>
<path d="M0 0 C1.65 0 3.3 0 5 0 C5.474375 0.969375 5.94875 1.93875 6.4375 2.9375 C7.70193947 5.80477437 7.70193947 5.80477437 9 7 C9.07205511 8.68608966 9.08386068 10.37500659 9.0625 12.0625 C9.05347656 12.98160156 9.04445313 13.90070312 9.03515625 14.84765625 C9.02355469 15.55792969 9.01195313 16.26820312 9 17 C6.00641141 14.41994017 4.54433112 11.45675187 2.8125 7.9375 C2.28269531 6.87402344 1.75289063 5.81054688 1.20703125 4.71484375 C0 2 0 2 0 0 Z " fill="#897B73" transform="translate(115,0)"/>
<path d="M0 0 C0.33 0 0.66 0 1 0 C0.98839844 0.96421875 0.97679687 1.9284375 0.96484375 2.921875 C0.95582031 4.18515625 0.94679688 5.4484375 0.9375 6.75 C0.92589844 8.00296875 0.91429687 9.2559375 0.90234375 10.546875 C0.97978973 13.28536501 1.17219185 15.41880293 2 18 C-1 17 -1 17 -2.0625 15.00390625 C-2.371875 14.19824219 -2.68125 13.39257812 -3 12.5625 C-4.36287699 9.02469848 -4.71086329 8.19275781 -8 6 C-8.1875 3.375 -8.1875 3.375 -8 1 C-7.34 1 -6.68 1 -6 1 C-5.54625 1.969375 -5.0925 2.93875 -4.625 3.9375 C-3.34213779 7.07079582 -3.34213779 7.07079582 -1 8 C-0.67 5.36 -0.34 2.72 0 0 Z " fill="#504238" transform="translate(43,131)"/>
<path d="M0 0 C4.70137412 1.36648936 6.34797756 3.37867585 8.875 7.5 C9.49117187 8.4796875 10.10734375 9.459375 10.7421875 10.46875 C11.15726563 11.3040625 11.57234375 12.139375 12 13 C11.67 13.66 11.34 14.32 11 15 C6.90582261 13.483638 4.30536233 10.60874739 2 7 C1.08623509 4.66169902 0.54218344 2.46447019 0 0 Z " fill="#8F837C" transform="translate(76,20)"/>
<path d="M0 0 C0.33 0.66 0.66 1.32 1 2 C-0.4375 4.625 -0.4375 4.625 -2 7 C-0.68 6.34 0.64 5.68 2 5 C0.38325319 8.42946293 -1.57597677 11.56263052 -3.625 14.75 C-4.57246094 16.22726563 -4.57246094 16.22726563 -5.5390625 17.734375 C-6.02117188 18.48203125 -6.50328125 19.2296875 -7 20 C-7.33 19.34 -7.66 18.68 -8 18 C-6.5625 15.375 -6.5625 15.375 -5 13 C-5.66 13 -6.32 13 -7 13 C-6.36610765 9.50155614 -4.94822306 7.15913124 -2.9375 4.25 C-2.38964844 3.45078125 -1.84179688 2.6515625 -1.27734375 1.828125 C-0.85582031 1.22484375 -0.43429688 0.6215625 0 0 Z " fill="#B6ABA3" transform="translate(46,20)"/>
<path d="M0 0 C4.15289097 3.67371124 7.23378258 8.22366459 10 13 C10 13.66 10 14.32 10 15 C9.34 15 8.68 15 8 15 C7.67 15.99 7.34 16.98 7 18 C5.02 15.03 3.04 12.06 1 9 C1.66 8.67 2.32 8.34 3 8 C2.505 7.05125 2.01 6.1025 1.5 5.125 C0 2 0 2 0 0 Z " fill="#918680" transform="translate(111,71)"/>
<path d="M0 0 C0.99 0 1.98 0 3 0 C8.37129841 10.37357631 8.37129841 10.37357631 10 16 C8.203125 15.83203125 8.203125 15.83203125 6 15 C4.296875 12.63671875 4.296875 12.63671875 2.75 9.6875 C2.22921875 8.72199219 1.7084375 7.75648438 1.171875 6.76171875 C0 4 0 4 0 0 Z " fill="#988E84" transform="translate(45,150)"/>
<path d="M0 0 C0.33 0 0.66 0 1 0 C3.38174071 9.59770763 0.031651 17.9574977 -3 27 C-3.33 27 -3.66 27 -4 27 C-4.41409151 21.06468832 -3.14191145 15.86957419 -1.734375 10.11328125 C-0.93859758 6.73969291 -0.39988547 3.43901504 0 0 Z " fill="#5D493D" transform="translate(60,0)"/>
<path d="M0 0 C4.05281712 1.22527029 7.44360764 2.69880494 11 5 C8 6 8 6 6 6 C5.01 6.33 4.02 6.66 3 7 C2.01 6.34 1.02 5.68 0 5 C-0.33 5.66 -0.66 6.32 -1 7 C-2.32 5.02 -3.64 3.04 -5 1 C-2.03 1.495 -2.03 1.495 1 2 C0.67 1.34 0.34 0.68 0 0 Z " fill="#CCBCB2" transform="translate(9,95)"/>
<path d="M0 0 C0.66 0 1.32 0 2 0 C0.9559635 6.68183363 -0.4042476 12.7465965 -3 19 C-4.26823485 15.34606463 -3.75715321 12.50929974 -3.0625 8.75 C-2.86785156 7.67234375 -2.67320313 6.5946875 -2.47265625 5.484375 C-2.31667969 4.66453125 -2.16070312 3.8446875 -2 3 C-1.34 3 -0.68 3 0 3 C0 2.01 0 1.02 0 0 Z " fill="#5F5249" transform="translate(46,57)"/>
<path d="M0 0 C4.02118642 2.06493357 6.01334998 3.92213943 8 8 C8 8.66 8 9.32 8 10 C5.625 10.125 5.625 10.125 3 10 C-0.00617269 6.99382731 0.40414684 4.17618402 0 0 Z " fill="#83786F" transform="translate(4,194)"/>
<path d="M0 0 C0.33 0 0.66 0 1 0 C1.25 5.625 1.25 5.625 -1 9 C-1.45394552 11.27912938 -1.45394552 11.27912938 -1.625 13.6875 C-1.69976562 14.49574219 -1.77453125 15.30398437 -1.8515625 16.13671875 C-1.90054688 16.75160156 -1.94953125 17.36648437 -2 18 C-2.33 16.68 -2.66 15.36 -3 14 C-3.99 14.66 -4.98 15.32 -6 16 C-6.99 16 -7.98 16 -9 16 C-8.67 15.01 -8.34 14.02 -8 13 C-7.195625 12.814375 -6.39125 12.62875 -5.5625 12.4375 C-2.79607902 11.26855495 -2.79607902 11.26855495 -2.26171875 8.6875 C-1.92349156 6.86985158 -1.62194451 5.04495322 -1.359375 3.21484375 C-1 1 -1 1 0 0 Z " fill="#423428" transform="translate(40,82)"/>
<path d="M0 0 C1.65 1.32 3.3 2.64 5 4 C5.33 3.01 5.66 2.02 6 1 C6.86380259 2.28524261 7.71580369 3.57842419 8.5625 4.875 C9.27599609 5.95394531 9.27599609 5.95394531 10.00390625 7.0546875 C10.33261719 7.69664063 10.66132812 8.33859375 11 9 C10.67 9.66 10.34 10.32 10 11 C9.67 10.67 9.34 10.34 9 10 C8.34 10.66 7.68 11.32 7 12 C5.82767315 10.3790787 4.6622923 8.75313167 3.5 7.125 C2.8503125 6.22007813 2.200625 5.31515625 1.53125 4.3828125 C0 2 0 2 0 0 Z " fill="#B7ADA7" transform="translate(91,46)"/>
<path d="M0 0 C-0.99 0.495 -0.99 0.495 -2 1 C-4.35171342 6.07475 -3.92067036 9.66011194 -3 15 C-5.42604752 12.57395248 -5.75843519 10.85807224 -6.625 7.5625 C-6.88539062 6.59441406 -7.14578125 5.62632813 -7.4140625 4.62890625 C-8 2 -8 2 -8 -1 C-4.37673261 -2.2077558 -3.35853631 -1.54311128 0 0 Z " fill="#BDB1A6" transform="translate(43,97)"/>
<path d="M0 0 C0.66 0 1.32 0 2 0 C3.50312477 2.07828493 4.85724824 4.12791551 6.1875 6.3125 C6.56841797 6.90740234 6.94933594 7.50230469 7.34179688 8.11523438 C8.31362948 9.69380094 9.16521849 11.34486531 10 13 C9.67 13.99 9.34 14.98 9 16 C4.15360722 11.12223898 1.71912699 6.65030706 0 0 Z " fill="#604F40" transform="translate(44,158)"/>
<path d="M0 0 C2.3125 0.0625 2.3125 0.0625 5 1 C6.87281082 4.54496333 8.21323799 8.06618996 9 12 C4.2 9.53846154 4.2 9.53846154 3.1875 6.8125 C3.125625 6.214375 3.06375 5.61625 3 5 C2.34 5 1.68 5 1 5 C0.67 3.35 0.34 1.7 0 0 Z " fill="#61544D" transform="translate(29,137)"/>
<path d="M0 0 C0.33 0.66 0.66 1.32 1 2 C2.80247502 2.61845595 2.80247502 2.61845595 5 3 C6.27617188 3.26490234 6.27617188 3.26490234 7.578125 3.53515625 C8.45984375 3.70917969 9.3415625 3.88320312 10.25 4.0625 C11.14203125 4.23910156 12.0340625 4.41570312 12.953125 4.59765625 C13.62859375 4.73042969 14.3040625 4.86320313 15 5 C15.33 5.99 15.66 6.98 16 8 C14.02 8.33 12.04 8.66 10 9 C9.67 8.34 9.34 7.68 9 7 C7.02111039 6.27306096 5.02045442 5.60183749 3 5 C3 4.34 3 3.68 3 3 C2.01 3 1.02 3 0 3 C0 2.01 0 1.02 0 0 Z " fill="#B9AFA7" transform="translate(107,188)"/>
<path d="M0 0 C5.48436902 0.80652486 10.33112512 2.71964598 14 7 C8.22621075 6.5188509 4.04140164 4.81532819 -1 2 C-0.67 1.34 -0.34 0.68 0 0 Z " fill="#70635C" transform="translate(96,98)"/>
<path d="M0 0 C2.15641331 3.23461997 2.81100973 5.67072961 3.6875 9.4375 C3.95949219 10.57058594 4.23148437 11.70367187 4.51171875 12.87109375 C4.96085657 15.74916889 4.98469931 17.31025087 4 20 C3.34 19.34 2.68 18.68 2 18 C1.67 18 1.34 18 1 18 C0.8309093 15.93769732 0.66482867 13.8751477 0.5 11.8125 C0.4071875 10.66394531 0.314375 9.51539063 0.21875 8.33203125 C0.0354038 5.53927574 -0.04213637 2.79680188 0 0 Z " fill="#ACA098" transform="translate(76,45)"/>
<path d="M0 0 C3.81035094 5.71552641 5.55570361 13.1463221 5 20 C0.65720374 15.45980391 -0.11265762 9.00995209 -0.125 2.9375 C-0.063125 1.4834375 -0.063125 1.4834375 0 0 Z " fill="#43372F" transform="translate(72,36)"/>
<path d="M0 0 C0.33 0 0.66 0 1 0 C0.46048934 6.68993219 -0.88706171 12.63460728 -3 19 C-3.66 19 -4.32 19 -5 19 C-3.83795007 12.45150687 -2.26616615 6.25461856 0 0 Z " fill="#413229" transform="translate(54,30)"/>
<path d="M0 0 C0.33 0 0.66 0 1 0 C1 3.3 1 6.6 1 10 C1.99 10.33 2.98 10.66 4 11 C3.6875 14.375 3.6875 14.375 3 18 C2.01 18.66 1.02 19.32 0 20 C0.66 18.35 1.32 16.7 2 15 C1.34 15 0.68 15 0 15 C0 10.05 0 5.1 0 0 Z " fill="#BEADA4" transform="translate(64,168)"/>
<path d="M0 0 C2.97 0.495 2.97 0.495 6 1 C6 1.66 6 2.32 6 3 C6.99 3.33 7.98 3.66 9 4 C9.6875 6.0625 9.6875 6.0625 10 8 C6.65750371 7.40312566 4.53563658 6.26396123 2 4 C2 3.34 2 2.68 2 2 C1.34 2 0.68 2 0 2 C0 1.34 0 0.68 0 0 Z " fill="#6A5E58" transform="translate(47,126)"/>
<path d="M0 0 C0.66 0 1.32 0 2 0 C2.66 3.63 3.32 7.26 4 11 C3.34 9.68 2.68 8.36 2 7 C1.34 7 0.68 7 0 7 C-0.66 9.64 -1.32 12.28 -2 15 C-3.06396981 10.74412077 -2.77540332 9.32535515 -1.5625 5.25 C-1.27503906 4.26515625 -0.98757812 3.2803125 -0.69140625 2.265625 C-0.46324219 1.51796875 -0.23507813 0.7703125 0 0 Z " fill="#D3C2B6" transform="translate(62,6)"/>
<path d="M0 0 C1.45047396 2.90094791 0.45356803 4.55972596 -0.4375 7.625 C-0.72496094 8.62789062 -1.01242188 9.63078125 -1.30859375 10.6640625 C-1.65083984 11.82035156 -1.65083984 11.82035156 -2 13 C-2.66 12.67 -3.32 12.34 -4 12 C-4 11.01 -4 10.02 -4 9 C-4.99 9.99 -5.98 10.98 -7 12 C-5.44298069 7.32894208 -2.91552627 3.91294315 0 0 Z " fill="#DCCFC5" transform="translate(59,7)"/>
<path d="M0 0 C0.65234375 1.734375 0.65234375 1.734375 1 4 C0.00390625 6.140625 0.00390625 6.140625 -1.4375 8.25 C-1.91058594 8.95640625 -2.38367188 9.6628125 -2.87109375 10.390625 C-3.24363281 10.92171875 -3.61617188 11.4528125 -4 12 C-4.66 11.01 -5.32 10.02 -6 9 C-4.97159885 4.98923553 -3.04012404 2.73611164 0 0 Z " fill="#70625B" transform="translate(73,170)"/>
<path d="M0 0 C0.66 0 1.32 0 2 0 C1.39169139 6.44807122 1.39169139 6.44807122 -0.375 8.9375 C-2 10 -2 10 -5 10 C-4.34 8.02 -3.68 6.04 -3 4 C-2.34 4 -1.68 4 -1 4 C-0.67 2.68 -0.34 1.36 0 0 Z " fill="#756961" transform="translate(20,61)"/>
<path d="M0 0 C0.33 1.32 0.66 2.64 1 4 C2.32 2.68 3.64 1.36 5 0 C3.68775452 3.93673644 2.08089673 6.22719294 -1 9 C-1 8.01 -1 7.02 -1 6 C-1.66 6 -2.32 6 -3 6 C-3.33 7.32 -3.66 8.64 -4 10 C-4.66 9.67 -5.32 9.34 -6 9 C-4.02 6.03 -2.04 3.06 0 0 Z " fill="#C8BCB4" transform="translate(23,55)"/>
<path d="M0 0 C-0.66 1.32 -1.32 2.64 -2 4 C-7.94 3.01 -7.94 3.01 -14 2 C-11.64651729 -0.35348271 -10.78533309 -0.36468749 -7.5625 -0.6875 C-6.78003906 -0.77386719 -5.99757813 -0.86023438 -5.19140625 -0.94921875 C-3 -1 -3 -1 0 0 Z " fill="#4D3E33" transform="translate(105,193)"/>
<path d="M0 0 C1.65 0.33 3.3 0.66 5 1 C4.67 2.65 4.34 4.3 4 6 C2.35 5.67 0.7 5.34 -1 5 C-0.67 3.35 -0.34 1.7 0 0 Z " fill="#978C86" transform="translate(16,165)"/>
<path d="M0 0 C1.7824918 3.33311475 2.48792856 6.24480943 3 10 C3.99 10.33 4.98 10.66 6 11 C5.67 11.66 5.34 12.32 5 13 C4.34 12.67 3.68 12.34 3 12 C3 12.66 3 13.32 3 14 C3.66 14.33 4.32 14.66 5 15 C4.01 15 3.02 15 2 15 C1.67 15.66 1.34 16.32 1 17 C1.020625 15.865625 1.04125 14.73125 1.0625 13.5625 C1.0706759 8.99217245 0.58691336 4.52761738 0 0 Z " fill="#B7ACA0" transform="translate(44,114)"/>
<path d="M0 0 C1.32 0.33 2.64 0.66 4 1 C4.6875 4.3125 4.6875 4.3125 5 8 C3.5625 9.9375 3.5625 9.9375 2 11 C1.855625 9.9275 1.71125 8.855 1.5625 7.75 C1.16250558 5.08337051 0.72408076 2.58600271 0 0 Z " fill="#6F6358" transform="translate(119,86)"/>
<path d="M0 0 C4.65866713 3.14774806 6.26592842 5.79778526 8 11 C7.67 11.66 7.34 12.32 7 13 C0.29612756 4.738041 0.29612756 4.738041 0 0 Z " fill="#54483D" transform="translate(89,39)"/>
<path d="M0 0 C1.32 0 2.64 0 4 0 C3.55530671 5.03985731 1.28656638 7.37634988 -2 11 C-3.3926445 6.82206651 -1.7987609 4.88532354 0 1 C0 0.67 0 0.34 0 0 Z " fill="#64574E" transform="translate(92,136)"/>
<path d="M0 0 C0.99 0.495 0.99 0.495 2 1 C2 1.99 2 2.98 2 4 C2.99 4.33 3.98 4.66 5 5 C4.67 8.3 4.34 11.6 4 15 C1.73625389 12.73625389 1.51648574 11.68987631 0.875 8.625 C0.70742187 7.85414062 0.53984375 7.08328125 0.3671875 6.2890625 C0 4 0 4 0 0 Z " fill="#DBCEBE" transform="translate(66,7)"/>
<path d="M0 0 C2 1 2 1 3.125 3.25 C4.00513321 6.01613295 4.1645438 8.12048351 4 11 C3.34 11 2.68 11 2 11 C0.7109375 9.25 0.7109375 9.25 -0.625 7 C-1.07101563 6.2575 -1.51703125 5.515 -1.9765625 4.75 C-2.31429687 4.1725 -2.65203125 3.595 -3 3 C-2.34 3 -1.68 3 -1 3 C-0.67 2.01 -0.34 1.02 0 0 Z M0 4 C0.33 4.99 0.66 5.98 1 7 C1 6.01 1 5.02 1 4 C0.67 4 0.34 4 0 4 Z " fill="#EADDD4" transform="translate(37,138)"/>
<path d="M0 0 C2.4375 1.125 2.4375 1.125 5 3 C5.8125 6.1875 5.8125 6.1875 6 9 C5.01 9.495 5.01 9.495 4 10 C4 9.34 4 8.68 4 8 C3.01 7.67 2.02 7.34 1 7 C0.67 4.69 0.34 2.38 0 0 Z " fill="#74685F" transform="translate(24,110)"/>
<path d="M0 0 C4.455 0.99 4.455 0.99 9 2 C9 2.99 9 3.98 9 5 C8.01 5 7.02 5 6 5 C5.67 6.32 5.34 7.64 5 9 C1 4.25 1 4.25 1 2 C0.67 1.34 0.34 0.68 0 0 Z " fill="#AB9E95" transform="translate(106,101)"/>
<path d="M0 0 C3.55780196 0.60990891 6.6828589 1.5783681 10 3 C9.67 3.99 9.34 4.98 9 6 C5.65626525 5.44271087 2.96687001 4.64826111 0 3 C0 2.01 0 1.02 0 0 Z " fill="#736962" transform="translate(48,98)"/>
<path d="M0 0 C1.28485596 5.13942384 0.22194431 6.37835584 -2 11 C-3.32 10.67 -4.64 10.34 -6 10 C-4.02 6.7 -2.04 3.4 0 0 Z " fill="#968A80" transform="translate(59,0)"/>
<path d="M0 0 C2.00720923 0.28674418 4.0085944 0.61866701 6 1 C5.67 2.65 5.34 4.3 5 6 C3.35 6 1.7 6 0 6 C-0.38218767 4.34385343 -0.71395102 2.67542976 -1 1 C-0.67 0.67 -0.34 0.34 0 0 Z " fill="#C1BAB4" transform="translate(21,1)"/>
<path d="M0 0 C0 1.66666667 0 3.33333333 0 5 C0.66 4.67 1.32 4.34 2 4 C0.75023244 7.65316671 0.32901247 8.78065836 -3 11 C-3.99 11 -4.98 11 -6 11 C-5.33333333 9.66666667 -4.66666667 8.33333333 -4 7 C-3.2265625 5.4221875 -3.2265625 5.4221875 -2.4375 3.8125 C-1 1 -1 1 0 0 Z " fill="#B1A49E" transform="translate(91,139)"/>
<path d="M0 0 C0.66 0.33 1.32 0.66 2 1 C1.875 3.3125 1.875 3.3125 1 6 C-2.20733304 8.02201431 -4.19154436 9 -8 9 C-7.67 8.01 -7.34 7.02 -7 6 C-3.4375 4.8125 -3.4375 4.8125 0 4 C0 2.68 0 1.36 0 0 Z " fill="#463729" transform="translate(85,89)"/>
<path d="M0 0 C2.475 0.99 2.475 0.99 5 2 C5.33 4.31 5.66 6.62 6 9 C4.125 8.4375 4.125 8.4375 2 7 C0.75 3.375 0.75 3.375 0 0 Z " fill="#73675F" transform="translate(76,20)"/>
<path d="M0 0 C1.83979073 2.7596861 2.48323221 4.29741882 3.1875 7.4375 C3.45626953 8.58025391 3.45626953 8.58025391 3.73046875 9.74609375 C4.0154963 12.12958496 3.72875415 13.73104204 3 16 C1.06729418 14.06729418 1.37336945 10.61358612 1 8 C0.67 7.67 0.34 7.34 0 7 C-0.04092937 4.66702567 -0.04241723 2.33294775 0 0 Z " fill="#45352B" transform="translate(78,60)"/>
<path d="M0 0 C2.4375 0.625 2.4375 0.625 5 2 C5.8125 5.125 5.8125 5.125 6 8 C5.01 8 4.02 8 3 8 C0 1.125 0 1.125 0 0 Z " fill="#6A5D51" transform="translate(16,117)"/>
<path d="M0 0 C0 1.65 0 3.3 0 5 C-2.31 4.67 -4.62 4.34 -7 4 C-7 3.01 -7 2.02 -7 1 C-2.25 0 -2.25 0 0 0 Z " fill="#B3AAA6" transform="translate(124,133)"/>
<path d="M0 0 C0.33 0.66 0.66 1.32 1 2 C2.32 1.34 3.64 0.68 5 0 C3.62845496 2.95409701 2.01136276 5.44008376 0 8 C0 7.01 0 6.02 0 5 C-0.66 5 -1.32 5 -2 5 C-1.34 3.35 -0.68 1.7 0 0 Z " fill="#ABA19A" transform="translate(96,131)"/>
<path d="M0 0 C0.66 0.33 1.32 0.66 2 1 C2.625 4.0625 2.625 4.0625 3 7 C3.66 6.34 4.32 5.68 5 5 C4.43628586 8.26954202 3.50037734 9.82575883 1 12 C1 11.01 1 10.02 1 9 C0.34 8.67 -0.32 8.34 -1 8 C-0.835 7.05125 -0.67 6.1025 -0.5 5.125 C0.0526635 2.19831099 0.0526635 2.19831099 0 0 Z " fill="#B7AC9F" transform="translate(119,89)"/>
<path d="M0 0 C0.99 0 1.98 0 3 0 C3 2.64 3 5.28 3 8 C2.01 8.495 2.01 8.495 1 9 C-0.4783226 6.04335481 -0.06032783 3.25770263 0 0 Z " fill="#65574D" transform="translate(82,77)"/>
<path d="M0 0 C3.08089673 2.77280706 4.68775452 5.06326356 6 9 C5.34 9 4.68 9 4 9 C3.67 9.99 3.34 10.98 3 12 C2.34 10.68 1.68 9.36 1 8 C1.66 8 2.32 8 3 8 C2.505 7.05125 2.01 6.1025 1.5 5.125 C0 2 0 2 0 0 Z " fill="#BAAEA4" transform="translate(111,71)"/>
<path d="M0 0 C0.66 0 1.32 0 2 0 C1.37240135 2.92879371 0.41377341 5.36095629 -1 8 C-0.34 8.33 0.32 8.66 1 9 C0.01 9 -0.98 9 -2 9 C-2.6875 7.3125 -2.6875 7.3125 -3 5 C-1.6875 2.25 -1.6875 2.25 0 0 Z " fill="#433529" transform="translate(4,85)"/>
<path d="M0 0 C1.5 1.0625 1.5 1.0625 3 3 C3.1875 6.6875 3.1875 6.6875 3 10 C1.5 8.9375 1.5 8.9375 0 7 C-0.1875 3.3125 -0.1875 3.3125 0 0 Z " fill="#796C61" transform="translate(0,184)"/>
<path d="M0 0 C0.99 0 1.98 0 3 0 C3.66 2.97 4.32 5.94 5 9 C2 8 2 8 0.8125 6.1875 C0 4 0 4 0 0 Z " fill="#574B40" transform="translate(45,150)"/>
<path d="M0 0 C0.99 0 1.98 0 3 0 C2.45773019 3.79588866 0.79872437 5.47211993 -2 8 C-1.125 1.125 -1.125 1.125 0 0 Z " fill="#5F524A" transform="translate(25,52)"/>
<path d="M0 0 C0.99 0.66 1.98 1.32 3 2 C3 2.99 3 3.98 3 5 C2.34 5 1.68 5 1 5 C0.67 5.99 0.34 6.98 0 8 C-0.66 5.69 -1.32 3.38 -2 1 C-1.34 0.67 -0.68 0.34 0 0 Z " fill="#544233" transform="translate(57,174)"/>
<path d="M0 0 C0.66 0.66 1.32 1.32 2 2 C1.625 5.625 1.625 5.625 1 9 C-1.0625 6.6875 -1.0625 6.6875 -3 4 C-2.67 3.01 -2.34 2.02 -2 1 C-1.67 1.33 -1.34 1.66 -1 2 C-0.67 1.34 -0.34 0.68 0 0 Z " fill="#B0A59A" transform="translate(30,117)"/>
<path d="M0 0 C1.44120286 2.88240573 1.56149506 5.82083921 2 9 C2.30903983 10.33917261 2.62942911 11.67653254 3 13 C0.65849012 11.24386759 -0.85600085 9.96311122 -1.30078125 6.98828125 C-1.3115456 4.98970012 -1.16327294 2.99192981 -1 1 C-0.67 0.67 -0.34 0.34 0 0 Z " fill="#A59686" transform="translate(1,88)"/>
<path d="M0 0 C0.66 0.33 1.32 0.66 2 1 C1.01 4.96 0.02 8.92 -1 13 C-1.33 13 -1.66 13 -2 13 C-2.19294408 8.17639811 -1.75747614 4.50353262 0 0 Z " fill="#3F2E24" transform="translate(58,14)"/>
<path d="M0 0 C2.46278801 2.46278801 2.99771255 4.70676982 4 8 C2.68 7.67 1.36 7.34 0 7 C-1.125 2.25 -1.125 2.25 0 0 Z " fill="#6C615A" transform="translate(72,11)"/>
<path d="M0 0 C0 1.65 0 3.3 0 5 C-0.99 5 -1.98 5 -3 5 C-3 5.66 -3 6.32 -3 7 C-3.66 7 -4.32 7 -5 7 C-4.6875 4.625 -4.6875 4.625 -4 2 C-1 0 -1 0 0 0 Z " fill="#635850" transform="translate(88,148)"/>
<path d="M0 0 C0.66 0 1.32 0 2 0 C4.04169485 2.90548882 5 4.40142046 5 8 C3.0625 7.375 3.0625 7.375 1 6 C0.25 2.875 0.25 2.875 0 0 Z " fill="#5C4C43" transform="translate(109,71)"/>
<path d="M0 0 C1.98 0.99 1.98 0.99 4 2 C4.33 1.34 4.66 0.68 5 0 C5 2.31 5 4.62 5 7 C4.01 6.67 3.02 6.34 2 6 C0.8125 2.9375 0.8125 2.9375 0 0 Z " fill="#C7BDB2" transform="translate(37,132)"/>
<path d="M0 0 C0.99 0.33 1.98 0.66 3 1 C3 2.32 3 3.64 3 5 C1.35 4.67 -0.3 4.34 -2 4 C-1.34 2.68 -0.68 1.36 0 0 Z " fill="#B0A6A5" transform="translate(121,39)"/>
<path d="M0 0 C0.66 0 1.32 0 2 0 C2 1.65 2 3.3 2 5 C0.35 5.66 -1.3 6.32 -3 7 C-1.125 2.25 -1.125 2.25 0 0 Z " fill="#584941" transform="translate(47,20)"/>
<path d="M0 0 C0.33 0.66 0.66 1.32 1 2 C0.67 2.99 0.34 3.98 0 5 C0.66 5.33 1.32 5.66 2 6 C1.01 6.99 0.02 7.98 -1 9 C-1 8.01 -1 7.02 -1 6 C-1.66 6 -2.32 6 -3 6 C-1.125 1.125 -1.125 1.125 0 0 Z " fill="#BAAFA3" transform="translate(50,14)"/>
<path d="M0 0 C0.99 0 1.98 0 3 0 C4.6875 2 4.6875 2 6 4 C5.34 5.32 4.68 6.64 4 8 C0 2.25 0 2.25 0 0 Z " fill="#83776F" transform="translate(35,147)"/>
<path d="M0 0 C2.475 0.495 2.475 0.495 5 1 C4.67 2.32 4.34 3.64 4 5 C3.01 5 2.02 5 1 5 C0.67 3.35 0.34 1.7 0 0 Z " fill="#70645E" transform="translate(29,137)"/>
<path d="M0 0 C1.65 1.65 3.3 3.3 5 5 C4.67 5.66 4.34 6.32 4 7 C3.67 6.67 3.34 6.34 3 6 C2.34 6.66 1.68 7.32 1 8 C0.34 6.68 -0.32 5.36 -1 4 C-0.34 4 0.32 4 1 4 C0.67 2.68 0.34 1.36 0 0 Z " fill="#A89B90" transform="translate(21,121)"/>
<path d="M0 0 C3.68754757 0.49831724 5.60490662 1.10067643 8 4 C5.69 3.67 3.38 3.34 1 3 C0.67 2.01 0.34 1.02 0 0 Z " fill="#60544A" transform="translate(102,101)"/>
<path d="M0 0 C0.66 0 1.32 0 2 0 C0.68775452 3.93673644 -0.91910327 6.22719294 -4 9 C-3.35494404 5.51669784 -2.01782732 2.90567134 0 0 Z " fill="#3D3127" transform="translate(39,33)"/>
<path d="M0 0 C1.98 0.495 1.98 0.495 4 1 C3.34 2.65 2.68 4.3 2 6 C1.67 5.34 1.34 4.68 1 4 C0.34 4 -0.32 4 -1 4 C-0.67 2.68 -0.34 1.36 0 0 Z " fill="#412D1D" transform="translate(62,182)"/>
<path d="M0 0 C0.6875 1.8125 0.6875 1.8125 1 4 C-0.4375 5.75 -0.4375 5.75 -2 7 C-2.6875 5.1875 -2.6875 5.1875 -3 3 C-1.5625 1.25 -1.5625 1.25 0 0 Z " fill="#594D42" transform="translate(81,157)"/>
<path d="M0 0 C0.33 0.66 0.66 1.32 1 2 C1.99 2 2.98 2 4 2 C3.34 3.65 2.68 5.3 2 7 C1.34 6.01 0.68 5.02 0 4 C-0.99 4.495 -0.99 4.495 -2 5 C-1.34 3.35 -0.68 1.7 0 0 Z " fill="#BCB2AB" transform="translate(106,115)"/>
<path d="M0 0 C0.99 0.33 1.98 0.66 3 1 C1.84826645 3.46800047 0.95216435 5.04783565 -1 7 C-1.625 5.1875 -1.625 5.1875 -2 3 C-1.34 2.01 -0.68 1.02 0 0 Z " fill="#867B74" transform="translate(7,81)"/>
<path d="M0 0 C0.99 0.33 1.98 0.66 3 1 C2.01 2.98 1.02 4.96 0 7 C-0.99 7 -1.98 7 -3 7 C-2.67 6.01 -2.34 5.02 -2 4 C-1.34 4 -0.68 4 0 4 C0 2.68 0 1.36 0 0 Z " fill="#453931" transform="translate(31,44)"/>
</svg>
